<svg width="16" height="16" viewBox="0 0 16 16" fill="none" xmlns="http://www.w3.org/2000/svg">
<rect width="16" height="16" fill="#1E1E1E"/>
<g id="Homepage" clip-path="url(#clip0_0_1)">
<rect width="1440" height="1079" transform="translate(-39 -148)" fill="white"/>
<g id="Sidebar">
<rect x="-38.5" y="-147.5" width="239" height="1078" fill="#F1F2F7"/>
<rect x="-38.5" y="-147.5" width="239" height="1078" stroke="#C6C6C6"/>
<g id="Frame 1000003661">
<g clip-path="url(#clip1_0_1)">
<g id="Frame 1000003662">
<rect x="-20" y="-13" width="200" height="43" rx="5" fill="#EE7203" fill-opacity="0.2"/>
<g id="Dashboard">
<g id="Iconly/Bold/Chart">
<g id="Chart">
<path id="Chart_2" fill-rule="evenodd" clip-rule="evenodd" d="M4.49799 0.500244H11.5022C14.053 0.500244 15.493 1.94699 15.5005 4.49774V11.5027C15.5005 14.0527 14.053 15.5002 11.5022 15.5002H4.49799C1.94724 15.5002 0.500488 14.0527 0.500488 11.5027V4.49774C0.500488 1.94699 1.94724 0.500244 4.49799 0.500244ZM8.03729 12.3952C8.36054 12.3952 8.62979 12.1552 8.65979 11.8327V4.19024C8.68979 3.95774 8.57804 3.72449 8.37554 3.59774C8.16479 3.47024 7.90979 3.47024 7.70804 3.59774C7.50479 3.72449 7.39304 3.95774 7.41479 4.19024V11.8327C7.45304 12.1552 7.72229 12.3952 8.03729 12.3952ZM11.488 12.3952C11.803 12.3952 12.0723 12.1552 12.1105 11.8327V9.37275C12.1323 9.132 12.0205 8.90775 11.8173 8.78025C11.6155 8.65275 11.3605 8.65275 11.1505 8.78025C10.9473 8.90775 10.8355 9.132 10.8655 9.37275V11.8327C10.8955 12.1552 11.1648 12.3952 11.488 12.3952ZM5.16476 11.8327C5.13476 12.1552 4.86551 12.3952 4.54226 12.3952C4.21976 12.3952 3.94976 12.1552 3.92051 11.8327V6.65024C3.89801 6.41699 4.00976 6.18524 4.21301 6.05774C4.41476 5.93024 4.67051 5.93024 4.87301 6.05774C5.07476 6.18524 5.18801 6.41699 5.16476 6.65024V11.8327Z" fill="#EE7203"/>
</g>
</g>
</g>
</g>
</g>
<path d="M182 129H-20V131H182V129Z" fill="#C6C6C6" mask="url(#path-2-inside-1_0_1)"/>
</g>
</g>
</g>
<defs>
<clipPath id="clip0_0_1">
<rect width="1440" height="1079" fill="white" transform="translate(-39 -148)"/>
</clipPath>
<clipPath id="clip1_0_1">
<path d="M-20 -34H182V130H-20V-34Z" fill="white"/>
</clipPath>
</defs>
</svg>
